{
  "asset": {
    "version": "2.0",
    "generator": "THREE.GLTFExporter"
  },
  "scenes": [
    {
      "nodes": [
        0
      ]
    }
  ],
  "scene": 0,
  "nodes": [
    {
      "children": [
        4
      ],
      "matrix": [
        0.01,
        0,
        0,
        0,
        0,
        0.01,
        0,
        0,
        0,
        0,
        0.01,
        0,
        0,
        0,
        0,
        1
      ]
    },
    {
      "matrix": [
        0.8617482186212974,
        0.09926400961087362,
        0.49753056599468654,
        0,
        -0.08596515400451923,
        0.995061131989373,
        -0.04963200480543681,
        0,
        -0.5,
        -3.469446951953614e-18,
        0.8660254037844386,
        0,
        0,
        0,
        0,
        1
      ],
      "name": "Sphere",
      "mesh": 0
    },
    {
      "matrix": [
        0.5069273216766265,
        -0.7621648503491325,
        -0.4026529913337868,
        0,
        0.8326460924910514,
        0.5538054574120622,
        0,
        0,
        0.22299142404394293,
        -0.3352674398639107,
        0.9153527017330279,
        0,
        0,
        0,
        0,
        1
      ],
      "name": "Directional Light",
      "extensions": {
        "KHR_lights_punctual": {
          "light": 0
        }
      }
    },
    {
      "matrix": [
        0.9480872633327699,
        -3.469446951953614e-18,
        0.3180102845918334,
        0,
        0.05851262482923954,
        0.9829269895421492,
        -0.17444427753641087,
        0,
        -0.3125808916772929,
        0.18399601416771963,
        0.9319005595709344,
        0,
        -312.5808916772933,
        183.99601416771966,
        931.9005595709357,
        1
      ],
      "camera": 0
    },
    {
      "name": "Scene 1",
      "children": [
        1,
        2,
        3
      ]
    }
  ],
  "bufferViews": [
    {
      "buffer": 0,
      "byteOffset": 0,
      "byteLength": 50700,
      "target": 34962,
      "byteStride": 12
    },
    {
      "buffer": 0,
      "byteOffset": 50700,
      "byteLength": 50700,
      "target": 34962,
      "byteStride": 12
    },
    {
      "buffer": 0,
      "byteOffset": 101400,
      "byteLength": 33800,
      "target": 34962,
      "byteStride": 8
    },
    {
      "buffer": 0,
      "byteOffset": 135200,
      "byteLength": 48384,
      "target": 34963
    }
  ],
  "buffers": [
    {
      "byteLength": 183584,
      "uri": "data:application/octet-stream;base64,"
    }
  ],
  "accessors": [
    {
      "bufferView": 0,
      "componentType": 5126,
      "count": 4225,
      "max": [
        210.5,
        210.5,
        210.5
      ],
      "min": [
        -210.5,
        -210.5,
        -210.5
      ],
      "type": "VEC3"
    },
    {
      "bufferView": 1,
      "componentType": 5126,
      "count": 4225,
      "max": [
        1,
        1,
        1
      ],
      "min": [
        -1,
        -1,
        -1
      ],
      "type": "VEC3"
    },
    {
      "bufferView": 2,
      "componentType": 5126,
      "count": 4225,
      "max": [
        1.0078125,
        1
      ],
      "min": [
        -0.0078125,
        0
      ],
      "type": "VEC2"
    },
    {
      "bufferView": 3,
      "componentType": 5123,
      "count": 24192,
      "max": [
        4224
      ],
      "min": [
        0
      ],
      "type": "SCALAR"
    }
  ],
  "materials": [
    {
      "pbrMetallicRoughness": {
        "baseColorTexture": {
          "index": 0,
          "extensions": {
            "KHR_texture_transform": {
              "offset": [
                0,
                0
              ],
              "scale": [
                1,
                1
              ]
            }
          }
        },
        "metallicFactor": 0,
        "roughnessFactor": 0.995
      },
      "doubleSided": false
    }
  ],
  "textures": [
    {
      "sampler": 0,
      "source": 0
    }
  ],
  "samplers": [
    {
      "magFilter": 9729,
      "minFilter": 9729,
      "wrapS": 10497,
      "wrapT": 10497
    }
  ],
  "images": [
    {
      "mimeType": "image/jpeg",
      "uri": "data:image/jpeg;base64,"
    }
  ],
  "meshes": [
    {
      "primitives": [
        {
          "mode": 4,
          "attributes": {
            "POSITION": 0,
            "NORMAL": 1,
            "TEXCOORD_0": 2
          },
          "extras": {
            "parameters": {
              "width": 421,
              "widthSegments": 64,
              "heightSegments": 64,
              "phiStart": 0,
              "phiLength": 6.283185307179586,
              "thetaStart": 0,
              "thetaLength": 180,
              "height": 421,
              "depth": 421,
              "type": "SphereGeometry"
            },
            "type": "SphereGeometry"
          },
          "indices": 3,
          "material": 0
        }
      ]
    }
  ],
  "extensions": {
    "KHR_lights_punctual": {
      "lights": [
        {
          "name": "Directional Light",
          "color": [
            1,
            1,
            1
          ],
          "intensity": 0.907,
          "type": "directional"
        }
      ]
    }
  },
  "cameras": [
    {
      "type": "orthographic",
      "orthographic": {
        "xmag": 9.36,
        "ymag": 4.83,
        "zfar": 100000,
        "znear": 0
      }
    }
  ],
  "extensionsUsed": [
    "KHR_texture_transform",
    "KHR_lights_punctual"
  ]
}